<?xml version="1.0" encoding="UTF-8"?>
<svg version="1.1" xmlns="http://www.w3.org/2000/svg" width="1254" height="1254">
<path d="M0 0 C413.82 0 827.64 0 1254 0 C1254 413.82 1254 827.64 1254 1254 C840.18 1254 426.36 1254 0 1254 C0 840.18 0 426.36 0 0 Z " fill="#FDFDFD" transform="translate(0,0)"/>
<path d="M0 0 C1.19375244 0.20705566 2.38750488 0.41411133 3.61743164 0.62744141 C10.27746315 2.00731291 14.5278583 3.67910433 18.66918945 9.22827148 C20.33225328 12.25999813 20.54405856 14.57210626 20.3125 18 C20.2609375 19.07636719 20.209375 20.15273437 20.15625 21.26171875 C19.8125 24.3125 19.8125 24.3125 19.30151367 26.68896484 C14.04469415 54.89155223 23.29596369 88.60984986 38.8125 112.3125 C53.78116694 133.19709229 75.70660469 146.49419686 100.8125 151.3125 C105.467766 151.9189988 110.13333779 152.32292259 114.81982422 152.5925293 C121.2914273 153.01307789 124.66491259 154.45125758 129.625 158.75 C133.20408271 163.2490977 132.27651806 168.89011752 131.8125 174.3125 C131.64492188 175.5396875 131.47734375 176.766875 131.3046875 178.03125 C129.55744521 191.56835556 130.24317253 205.16936896 133.8125 218.3125 C134.00585938 219.28703125 134.19921875 220.2615625 134.3984375 221.265625 C139.05510633 243.88373076 155.20502038 265.27607642 173.7734375 278.40625 C197.30263406 293.51141322 220.62105561 297.02310686 248.17773438 296.30444336 C249.03129517 296.28666336 249.88485596 296.26888336 250.76428223 296.25056458 C252.37526029 296.21475605 253.98601751 296.16545571 255.59606934 296.10014343 C260.4468494 295.99299137 263.5901047 296.65533335 267.8125 299.3125 C272.44971078 303.8611884 274.2435968 308.46750898 276.25 314.5625 C278.74441697 321.69658687 281.38618667 328.12481133 285.8125 334.3125 C286.32167969 335.04082031 286.83085938 335.76914062 287.35546875 336.51953125 C302.57656063 357.16381502 324.71599193 370.05082651 349.9375 374.5625 C357.06722408 375.46073296 364.19485224 375.52142028 371.375 375.5625 C372.4985791 375.5718457 373.6221582 375.58119141 374.77978516 375.59082031 C381.63360853 375.56483994 388.13504389 374.91688911 394.89086914 373.77978516 C401.29578597 372.75538382 408.86608587 371.7254322 414.98828125 374.1875 C418.72451226 377.00589759 420.34843148 381.0256341 421.8125 385.3125 C422.10423096 386.09947266 422.39596191 386.88644531 422.6965332 387.69726562 C436.97189722 426.27740673 441.97381487 465.49137644 442 506.4375 C442.00108765 507.3539328 442.00217529 508.2703656 442.0032959 509.21456909 C442.00102873 526.07037243 441.1618958 542.5999195 438.8125 559.3125 C438.66364349 560.37482849 438.66364349 560.37482849 438.51177979 561.45861816 C431.37487827 611.8762413 418.03997667 659.91351587 396.8125 706.3125 C396.35649414 707.31490723 395.90048828 708.31731445 395.43066406 709.35009766 C388.57499459 724.32011304 380.8824369 738.60320819 372.38427734 752.70214844 C370.97883845 755.03625105 369.58883527 757.37842013 368.20703125 759.7265625 C363.6620946 767.42913439 358.88983791 774.94766886 353.8125 782.3125 C353.38098633 782.93850098 352.94947266 783.56450195 352.50488281 784.20947266 C342.237549 799.05316507 331.42618305 813.49142172 319.8125 827.3125 C319.38710938 827.82280762 318.96171875 828.33311523 318.5234375 828.85888672 C306.09740074 843.73906573 292.85337408 857.74512367 278.49951172 870.77832031 C276.93016238 872.20549705 275.37144514 873.64320408 273.81640625 875.0859375 C267.67616748 880.74715055 261.35190099 886.11967162 254.8125 891.3125 C254.17989258 891.81765137 253.54728516 892.32280273 252.89550781 892.84326172 C177.96364799 952.52428419 88.71056252 989.24931118 -118.65234375 1001.53515625 C-137.72167884 999.28461302 -156.48164554 995.58358899 -175.1875 991.3125 C-175.84685547 991.16210266 -176.50621094 991.01170532 -177.18554688 990.85675049 C-253.09972975 973.41796465 -328.04025561 937.1963162 -386.90429688 885.86181641 C-389.39803859 883.68928442 -391.8913003 881.54490139 -394.49414062 879.50268555 C-402.68305057 873.04126756 -409.96927082 865.80167201 -417.3046875 858.40112305 C-419.44214882 856.24531127 -421.58759848 854.09770378 -423.734375 851.95117188 C-425.12026527 850.5603676 -426.50569792 849.16910714 -427.890625 847.77734375 C-428.51994934 847.14690659 -429.14927368 846.51646942 -429.79766846 845.8669281 C-434.11560423 841.50343098 -438.18796989 836.96835304 -442.1875 832.3125 C-442.63668793 831.79623047 -443.08587585 831.27996094 -443.54867554 830.74804688 C-451.51409755 821.58462875 -458.92789555 812.04058443 -466.1875 802.3125 C-466.72133301 801.59964844 -467.25516602 800.88679687 -467.80517578 800.15234375 C-481.73807905 781.4677567 -493.96269901 761.72717404 -505.1875 741.3125 C-505.88504395 740.04720459 -505.88504395 740.04720459 -506.59667969 738.75634766 C-536.15837676 684.75298152 -553.57759768 624.34432702 -560.9375 563.38275146 C-561.10153236 562.02439853 -561.2681137 560.66635048 -561.4375 559.30865479 C-566.72044335 516.84463912 -567.1045218 471.56833091 -560.1875 429.3125 C-559.86820349 427.125608 -559.55298445 424.93811612 -559.2421875 422.75 C-555.03547051 393.91984747 -548.87317193 365.06611675 -539.2890625 337.51953125 C-538.22746197 334.42884318 -537.29158002 331.32379772 -536.375 328.1875 C-517.14431504 265.45883715 -480.81452513 203.34321139 -436.5234375 154.89453125 C-435.24161249 153.47766447 -433.96636287 152.05434074 -432.72338867 150.60327148 C-427.66811298 144.71078791 -422.249814 139.22636063 -416.75 133.75 C-415.39551758 132.3897168 -415.39551758 132.3897168 -414.01367188 131.00195312 C-408.90038041 125.89606687 -403.69439901 120.9899966 -398.1875 116.3125 C-397.17797314 115.43537011 -396.16883049 114.55779774 -395.16015625 113.6796875 C-353.10410872 77.66390451 -304.74986672 49.35951473 -253.1875 29.3125 C-252.17872803 28.91466309 -251.16995605 28.51682617 -250.13061523 28.10693359 C-242.49733739 25.12331287 -234.80551865 22.43394764 -227 19.9375 C-225.79239014 19.55102295 -224.58478027 19.1645459 -223.34057617 18.76635742 C-212.07480195 15.20538324 -200.72993043 12.03509625 -189.28320312 9.11230469 C-186.3523881 8.35510043 -183.43433068 7.56020232 -180.515625 6.7578125 C-123.15143629 -8.53111896 -58.3880386 -10.9378062 0 0 Z " fill="#E8A64D" transform="translate(687.1875,111.6875)"/>
<path d="M0 0 C0.66 0 1.32 0 2 0 C2.41027748 4.05259979 2.81914185 8.10533966 3.22680664 12.15820312 C3.36510865 13.5312873 3.5037688 14.90433547 3.64282227 16.27734375 C4.10582807 20.85057074 4.55613775 25.42487347 5 30 C5.1544458 31.5310437 5.1544458 31.5310437 5.31201172 33.09301758 C6.09590344 41.45287545 6.24190075 49.7977473 6.25 58.1875 C6.25100708 58.91677704 6.25201416 59.64605408 6.25305176 60.39743042 C6.24293139 71.25019013 5.64232376 81.43070496 3 92 C2.61714844 93.84078125 2.61714844 93.84078125 2.2265625 95.71875 C-3.48048007 121.47897886 -15.76440792 144.82127273 -28.875 167.5 C-44.07354256 193.95582117 -50.95718692 222.6930691 -50 253 C-49.9690625 254.29164063 -49.938125 255.58328125 -49.90625 256.9140625 C-48.49219855 287.66968144 -32.8986233 313.11206247 -14.19140625 336.53515625 C0.01296576 354.3570602 7.86302669 373.95082511 13 396 C13.28746094 397.21300781 13.57492188 398.42601562 13.87109375 399.67578125 C16.06307951 410.0678381 16.90130106 420.59838484 17.87988281 431.1574707 C21.03300642 465.15653461 26.21417542 497.77608552 43 528 C43.35707031 528.64549805 43.71414063 529.29099609 44.08203125 529.95605469 C48.96216843 538.66873776 54.37360085 546.49084526 61 554 C61.76570312 554.87527344 62.53140625 555.75054688 63.3203125 556.65234375 C70.0181968 564.20165402 76.83428245 571.19271497 84.875 577.3125 C85.60605957 577.869375 86.33711914 578.42625 87.09033203 579 C97.86495557 587.05045606 109.51743628 593.9484053 122 599 C123.02351562 599.41765625 124.04703125 599.8353125 125.1015625 600.265625 C131.69522196 602.87791013 138.3448193 605.06805967 145.13671875 607.1015625 C148.54496205 608.17099764 151.74719345 609.527031 155 611 C155.70898438 611.26167969 156.41796875 611.52335938 157.1484375 611.79296875 C169.56051677 616.39226673 179.48917555 622.86686172 189 632 C190.18080716 632.96656789 191.36773733 633.92573651 192.5625 634.875 C196.44204883 638.16536502 199.45240963 642.10837133 202.61328125 646.07421875 C204.98429285 648.98074525 207.45664512 651.74371308 210 654.5 C213.17649607 657.94322474 216.17280598 661.43910898 219.0625 665.125 C229.49201935 677.98684542 241.65805358 689.23854122 255 699 C256.12783846 699.84604192 257.25544181 700.69239736 258.3828125 701.5390625 C301.96012128 733.85754987 353.6088224 745.25583044 407.0625 745.1875 C408.48706009 745.18609512 408.48706009 745.18609512 409.94039917 745.18466187 C438.14925486 745.12442521 465.83455022 742.65086323 492.78857422 733.72753906 C494.34861639 733.21429931 495.91325621 732.71493321 497.48095703 732.22558594 C519.81536775 725.24891403 540.36231972 714.71031628 560.8125 703.5 C569.90104901 698.53069698 578.91931222 693.63161562 589 691 C589.98871094 690.74017334 590.97742188 690.48034668 591.99609375 690.21264648 C603.49300836 687.5481289 614.86811093 687.51132812 626.625 687.4375 C646.33023034 687.27667413 665.75941277 686.64376317 685.0625 682.3125 C686.84188965 681.91840942 686.84188965 681.91840942 688.65722656 681.51635742 C717.3663897 674.92892779 744.87784717 662.06273373 769.04321289 645.27319336 C772.25935942 643.05505295 775.29986691 641.27518711 779 640 C777.67743163 642.89848717 776.22062138 645.07167293 774.05078125 647.3984375 C773.45749023 648.03571777 772.86419922 648.67299805 772.25292969 649.32958984 C771.61258789 650.0045752 770.97224609 650.67956055 770.3125 651.375 C769.31524902 652.43195068 769.31524902 652.43195068 768.29785156 653.51025391 C762.01712149 660.09984812 755.437503 666.32837703 748.703125 672.44970703 C747.12748794 673.88395235 745.56195495 675.32823164 744 676.77734375 C737.86078939 682.43692853 731.53795089 687.80832312 725 693 C724.36739258 693.50515137 723.73478516 694.01030273 723.08300781 694.53076172 C648.15114799 754.21178419 558.89806252 790.93681118 351.53515625 803.22265625 C332.46582116 800.97211302 313.70585446 797.27108899 295 793 C294.34064453 792.84960266 293.68128906 792.69920532 293.00195312 792.54425049 C217.08777025 775.10546465 142.14724439 738.8838162 83.28320312 687.54931641 C80.78946141 685.37678442 78.2961997 683.23240139 75.69335938 681.19018555 C67.50444943 674.72876756 60.21822918 667.48917201 52.8828125 660.08862305 C50.74535118 657.93281127 48.59990152 655.78520378 46.453125 653.63867188 C45.06723473 652.2478676 43.68180208 650.85660714 42.296875 649.46484375 C41.66755066 648.83440659 41.03822632 648.20396942 40.38983154 647.5544281 C36.07189577 643.19093098 31.99953011 638.65585304 28 634 C27.55081207 633.48373047 27.10162415 632.96746094 26.63882446 632.43554688 C18.67340245 623.27212875 11.25960445 613.72808443 4 604 C3.46616699 603.28714844 2.93233398 602.57429687 2.38232422 601.83984375 C-11.55057905 583.1552567 -23.77519901 563.41467404 -35 543 C-35.69754395 541.73470459 -35.69754395 541.73470459 -36.40917969 540.44384766 C-65.97087676 486.44048152 -83.39009768 426.03182702 -90.75 365.07025146 C-90.91403236 363.71189853 -91.0806137 362.35385048 -91.25 360.99615479 C-96.53294335 318.53213912 -96.9170218 273.25583091 -90 231 C-89.68070349 228.813108 -89.36548445 226.62561612 -89.0546875 224.4375 C-84.84797051 195.60734747 -78.68567193 166.75361675 -69.1015625 139.20703125 C-68.03996197 136.11634318 -67.10408002 133.01129772 -66.1875 129.875 C-53.8797692 89.72835431 -33.71453208 51.9330386 -11.5 16.5 C-11.03198975 15.75306885 -10.56397949 15.0061377 -10.08178711 14.23657227 C-3.44585653 3.80426657 -3.44585653 3.80426657 0 0 Z " fill="#D5913C" transform="translate(217,310)"/>
<path d="M0 0 C19.97989933 15.97836177 33.08002719 35.9782058 37.796875 61.21484375 C40.18971712 84.22480028 37.87078557 105.93939726 23.74609375 124.87109375 C22.58281111 126.24611997 21.39475038 127.60054341 20.18359375 128.93359375 C19.53003906 129.67867187 18.87648438 130.42375 18.203125 131.19140625 C7.24332956 142.96969279 -8.58929085 151.29669696 -24.83325195 152.07885742 C-28.26523474 152.10352505 -31.69682835 152.11924557 -35.12890625 152.12109375 C-36.31419922 152.13333984 -37.49949219 152.14558594 -38.72070312 152.15820312 C-62.59722698 152.19793112 -83.2631481 140.85935603 -100.37890625 124.68359375 C-117.07411959 107.24375822 -127.29519482 84.25250456 -127.06640625 60.05859375 C-127.05746338 58.99576172 -127.04852051 57.93292969 -127.03930664 56.83789062 C-126.77621261 39.09472029 -122.14673075 23.86587168 -110.81640625 9.93359375 C-110.12675781 9.08152344 -109.43710937 8.22945312 -108.7265625 7.3515625 C-81.2094877 -24.90483275 -32.65661676 -23.96026389 0 0 Z " fill="#5A3721" transform="translate(781.81640625,703.06640625)"/>
<path d="M0 0 C1.46953125 0.49306641 1.46953125 0.49306641 2.96875 0.99609375 C19.27854089 7.07022979 31.61378641 19.4028985 39 35 C46.78300149 53.22149356 46.46190996 75.20518449 39.265625 93.56640625 C29.5842531 116.94801434 12.90330491 134.7193383 -10.34375 144.90625 C-29.29091927 152.70802558 -49.56307565 153.47819898 -68.7265625 145.61328125 C-86.99841375 136.60818034 -98.36339103 122.21123648 -105 103 C-110.78395141 80.72658909 -105.88241793 60.67993698 -95 41 C-94.48953125 40.03449219 -93.9790625 39.06898438 -93.453125 38.07421875 C-81.89906525 17.9737282 -60.85267871 4.18780792 -38.875 -1.875 C-26.2456489 -4.47197795 -12.18970142 -4.32594289 0 0 Z " fill="#5A3720" transform="translate(454,289)"/>
<path d="M0 0 C13.20139177 9.35992326 21.89627981 22.04356958 25.64453125 37.875 C27.50867144 55.09765878 24.08181824 69.83004207 13.64453125 83.875 C13.1340625 84.58011719 12.62359375 85.28523437 12.09765625 86.01171875 C4.44631899 95.65164614 -6.86711551 101.96467853 -18.35546875 105.875 C-19.0827417 106.13466553 -19.81001465 106.39433105 -20.55932617 106.66186523 C-26.91141857 108.78215246 -32.62234851 109.3162967 -39.29296875 109.1875 C-40.26153809 109.17549561 -41.23010742 109.16349121 -42.22802734 109.15112305 C-60.44075678 108.79042935 -74.64904293 103.05989324 -88.10546875 90.5625 C-99.69259069 78.39045123 -103.79671551 64.05064841 -103.71923828 47.69116211 C-103.26426276 30.70717268 -94.43653936 16.80190132 -82.375 5.34765625 C-59.04326548 -13.75840837 -25.55063835 -16.21818905 0 0 Z " fill="#5B3821" transform="translate(414.35546875,728.125)"/>
<path d="M0 0 C1.22493164 -0.01836914 1.22493164 -0.01836914 2.47460938 -0.03710938 C17.13213626 -0.07214729 31.18614648 6.7097267 41.58203125 16.9140625 C54.74669623 31.12896977 60.08879872 46.17145882 59.8984375 65.37890625 C59.04408502 80.80471498 51.99082233 93.84009662 40.6875 104.1875 C37.50975805 106.62918351 34.31528565 108.49344394 30.6875 110.1875 C29.80835938 110.59871094 28.92921875 111.00992188 28.0234375 111.43359375 C14.16270571 116.95115778 -1.5358673 115.04716934 -15.3125 110.1875 C-30.46687144 103.39487302 -42.34079008 89.47869662 -48.3125 74.1875 C-53.08073927 57.46281114 -52.53992336 42.0909696 -44.625 26.4375 C-37.38832495 14.13515242 -26.20367165 4.33063779 -12.19921875 0.62890625 C-8.12631417 0.00612111 -4.1144606 0.00320191 0 0 Z " fill="#5A3721" transform="translate(730.3125,396.8125)"/>
<path d="M0 0 C9.82582115 8.31047536 17.11094786 19.06014203 19 32 C19.30677263 35.75211976 19.40800705 39.4861974 19.4375 43.25 C19.44765137 44.17264648 19.45780273 45.09529297 19.46826172 46.04589844 C19.3897267 52.20702585 18.30709354 57.29741185 16 63 C15.64679688 63.89589844 15.29359375 64.79179688 14.9296875 65.71484375 C9.20009917 77.78942064 -0.09624041 86.50149009 -12.5 91.375 C-23.74071798 94.79171887 -36.53094813 94.58787698 -47 89 C-60.03284787 81.22264322 -69.14195322 70.81232464 -73.30078125 56.01953125 C-76.00433464 42.74408023 -75.67109307 27.96561138 -69 16 C-68.55398438 15.18789063 -68.10796875 14.37578125 -67.6484375 13.5390625 C-60.71064338 2.18278498 -50.43734718 -6.29577823 -37.421875 -9.66796875 C-23.81008836 -11.53410079 -11.02379565 -8.24947374 0 0 Z " fill="#5A3721" transform="translate(971,573)"/>
<path d="M0 0 C7.2156114 6.48158568 12.52625951 15.13966372 13.421875 24.8828125 C13.89910882 35.5170435 12.42035593 44.19421647 5.59765625 52.640625 C-0.87051502 59.48116434 -9.38793506 64.20855702 -18.88671875 64.796875 C-20.5582802 64.83088741 -22.23048314 64.84063989 -23.90234375 64.828125 C-24.78051758 64.82312988 -25.65869141 64.81813477 -26.56347656 64.81298828 C-39.65823233 64.46331248 -49.29490922 58.48003943 -58.27734375 49.328125 C-65.59556891 40.69377634 -69.16990301 30.88569248 -68.6015625 19.58203125 C-67.24719105 9.77167106 -62.34586987 1.38992752 -54.53515625 -4.71875 C-36.74350077 -16.64556614 -16.40594219 -12.74363568 0 0 Z " fill="#5C3821" transform="translate(584.15234375,897.671875)"/>
<path d="M0 0 C8.81447997 6.30804961 14.48336894 13.4453361 17 24 C18.37505937 35.13798087 17.49841956 44.5635422 11 54 C10.24009766 55.13695312 10.24009766 55.13695312 9.46484375 56.296875 C4.60380701 62.65085914 -2.15244957 67.04231652 -10.11083984 68.34570312 C-21.98592861 69.57531858 -31.05181712 67.48205255 -40.5546875 59.984375 C-47.78972671 53.38981467 -52.48297499 44.72980099 -53.23828125 34.8984375 C-53.5008312 22.4342241 -50.33075527 13.50057978 -41.6875 4.375 C-29.68534868 -7.21769626 -14.30300681 -7.62118083 0 0 Z " fill="#5B3821" transform="translate(542,561)"/>
<path d="M0 0 C5.56889753 4.09163327 10.02387891 9.00132422 12.23828125 15.64453125 C13.32802488 26.3240188 11.51938886 35.64932447 5.21875 44.47265625 C-2.1756812 53.12323426 -11.12413972 59.88613574 -22.65625 61.03125 C-31.91809131 61.53290272 -39.31996011 60.76157893 -46.76171875 54.64453125 C-49.18889873 52.16730632 -51.02749525 49.64108071 -52.76171875 46.64453125 C-53.38046875 45.59265625 -53.99921875 44.54078125 -54.63671875 43.45703125 C-57.30496897 34.41462774 -56.42123913 25.99490288 -52.4375 17.5 C-46.66678537 7.66691749 -37.51443121 -0.66959016 -26.40234375 -3.875 C-16.69148963 -5.64191576 -8.44582125 -5.34276396 0 0 Z " fill="#5C3921" transform="translate(311.76171875,538.35546875)"/>
<path d="M0 0 C6.00734337 4.61885363 10.77413657 12.37168856 12.25 19.8125 C13.26487412 31.83593921 11.25254902 40.12147234 4.25 49.8125 C-1.13689206 56.04995396 -8.17184105 60.28505231 -16.4765625 61.0703125 C-25.69247697 61.42028394 -31.87648125 59.37029421 -39 53.5625 C-45.69384802 47.32202017 -49.23119846 40.39263282 -50.0859375 31.19921875 C-50.20865419 19.57794802 -48.02863667 10.32871344 -39.75 1.8125 C-27.04898748 -8.44864118 -13.70011407 -8.65270362 0 0 Z " fill="#5B3821" transform="translate(964.75,821.1875)"/>
<path d="M0 0 C3.48528881 2.4953843 5.88410682 4.89361497 8.1875 8.5 C8.92033203 9.62921875 8.92033203 9.62921875 9.66796875 10.78125 C10.10753906 11.5134375 10.54710937 12.245625 11 13 C11.37769531 13.58523437 11.75539063 14.17046875 12.14453125 14.7734375 C14.64260414 21.27527104 14.12646701 30.56920124 11.97265625 37.12890625 C7.98387586 44.36616708 2.10723116 48.35710754 -5.4375 51.375 C-15.49325384 53.13916734 -24.21585651 52.04560463 -32.7421875 46.08203125 C-39.5212859 40.39925588 -43.22631487 34.32105539 -46 26 C-46.18149876 16.63984957 -44.80663767 9.20719081 -38.359375 2.22265625 C-27.20802406 -8.04964676 -12.79188131 -7.24428449 0 0 Z " fill="#5C3821" transform="translate(628,235)"/>
<path d="M0 0 C0.33 0.66 0.66 1.32 1 2 C-0.09346881 3.34212062 -1.2001575 4.67347975 -2.3125 6 C-3.23482422 7.11375 -3.23482422 7.11375 -4.17578125 8.25 C-6 10 -6 10 -9 10 C-8.06409496 8.8944811 -7.12620142 7.79064547 -6.1875 6.6875 C-5.66542969 6.07261719 -5.14335938 5.45773437 -4.60546875 4.82421875 C-3.12827531 3.14575321 -1.59960869 1.56117966 0 0 Z " fill="#DA9B50" transform="translate(988,957)"/>
<path d="M0 0 C0.33 0 0.66 0 1 0 C1.59720137 5.82271337 -0.471757 9.9209404 -3 15 C-4.43410153 11.21180727 -3.51009497 8.93478721 -2.0625 5.25 C-1.49208984 3.77273438 -1.49208984 3.77273438 -0.91015625 2.265625 C-0.60980469 1.51796875 -0.30945313 0.7703125 0 0 Z " fill="#734A28" transform="translate(684,427)"/>
<path d="M0 0 C-0.33 0.99 -0.66 1.98 -1 3 C-4.37817425 3.84454356 -6.67465243 4.10844919 -10 3 C-3.375 0 -3.375 0 0 0 Z " fill="#EAB261" transform="translate(434,142)"/>
<path d="M0 0 C0.99 0.33 1.98 0.66 3 1 C1.35 2.98 -0.3 4.96 -2 7 C-2.66 6.01 -3.32 5.02 -4 4 C-2.68 2.68 -1.36 1.36 0 0 Z " fill="#633D25" transform="translate(370,315)"/>
<path d="M0 0 C-1.15173355 2.46800047 -2.04783565 4.04783565 -4 6 C-4.99 5.67 -5.98 5.34 -7 5 C-2.25 0 -2.25 0 0 0 Z " fill="#664125" transform="translate(594,235)"/>
</svg>
